<svg width="40" height="40" viewBox="0 0 40 40" fill="none" xmlns="http://www.w3.org/2000/svg">
<path d="M12.5 15.0013H14.1667M14.1667 15.0013H27.5M14.1667 15.0013V26.668C14.1667 27.11 14.3423 27.5339 14.6548 27.8465C14.9674 28.159 15.3913 28.3346 15.8333 28.3346H24.1667C24.6087 28.3346 25.0326 28.159 25.3452 27.8465C25.6577 27.5339 25.8333 27.11 25.8333 26.668V15.0013H14.1667ZM16.6667 15.0013V13.3346C16.6667 12.8926 16.8423 12.4687 17.1548 12.1561C17.4674 11.8436 17.8913 11.668 18.3333 11.668H21.6667C22.1087 11.668 22.5326 11.8436 22.8452 12.1561C23.1577 12.4687 23.3333 12.8926 23.3333 13.3346V15.0013M18.3333 19.168V24.168M21.6667 19.168V24.168" stroke="#667085" stroke-width="1.66667" stroke-linecap="round" stroke-linejoin="round"/>
</svg>
